# xmcd
#
# Track frame offsets: 
#        150
#        19712
#        34825
#        52742
#        69367
#        87385
#        106880
#        126075
#        142992
#        159325
#        185407
#
# Disc length: 4440 seconds
#
# Revision: 2
# Processed by: cddbd v1.5.2PL0 Copyright (c) Steve Scherf et al.
# Submitted via: ExactAudioCopy v1.3
#
DISCID=8411560b
DTITLE=Michael Learns To Rock - Take Me To Your Heart
DYEAR=2004
DGENRE=Pop
TTITLE0=Frostbite
TTITLE1=Final Destination
TTITLE2=Take Me To Your Heart
TTITLE3=Don't Have To Lose
TTITLE4=Salvation
TTITLE5=Hit By A Feeling
TTITLE6=If You Leave My World
TTITLE7=This Is Who I Am
TTITLE8=Home To You (Duet  With Julie Berthelsen)
TTITLE9=Laugh and Cry
TTITLE10=Data Track
EXTD=
EXTT0=
EXTT1=
EXTT2=
EXTT3=
EXTT4=
EXTT5=
EXTT6=
EXTT7=
EXTT8=
EXTT9=
EXTT10=
PLAYORDER=
